<svg width="10" height="15" fill="none" xmlns="http://www.w3.org/2000/svg"><path d="M3.813 6.604c.333.313.729.47 1.187.47.458 0 .844-.157 1.156-.47.334-.333.5-.729.5-1.187 0-.458-.166-.844-.5-1.156A1.522 1.522 0 0 0 5 3.76c-.458 0-.854.166-1.188.5a1.571 1.571 0 0 0-.468 1.156c0 .458.156.854.469 1.187ZM1.687 2.136C2.604 1.219 3.708.76 5 .76c1.292 0 2.385.458 3.281 1.375.917.896 1.375 1.99 1.375 3.281 0 .646-.166 1.385-.5 2.219A12.904 12.904 0 0 1 8 9.979c-.458.73-.917 1.417-1.375 2.063a23.164 23.164 0 0 1-1.125 1.5l-.5.531a27.09 27.09 0 0 0-.5-.562c-.208-.25-.583-.73-1.125-1.438A31.712 31.712 0 0 1 1.937 9.98 17.075 17.075 0 0 1 .845 7.667c-.334-.854-.5-1.604-.5-2.25 0-1.292.448-2.385 1.344-3.281Z" fill="#797979"/></svg>