<svg width="200" height="123" fill="none" xmlns="http://www.w3.org/2000/svg"><g clip-path="url('#clip0_470_2207')" fill="#F0F0F0"><path fill-rule="evenodd" clip-rule="evenodd" d="M65.03 97.913c-1.187.791-2.37 1.187-3.36 1.187-.48 0-1.383-.138-1.383-.791 0-.791.417-1.895 1.382-3.952.792-1.778 2.37-4.148 3.953-7.113 1.977-3.161 4.347-7.113 7.508-11.857 2.965-4.743 7.113-11.264 12.056-19.364l-4.743.591-8.696 14.23c-1.186 2.37-2.965 4.743-4.743 7.508-1.978 2.37-3.756 4.544-5.139 6.126-.34.385-4.939 5.796-4.939 5.93 0 .13.132.196.396.196h.196c2.914-2.914 5.182-6.097 7.904-9.09v.195s-.987 1.779-2.965 4.743c-1.978 3.162-2.965 5.335-3.557 6.322-2.06 4.617-1.404 7.114 2.37 7.114 8.057.678 17.478-19.17 23.713-19.17.79 0 1.186.197 1.186.792 0 5.324-6.917 8.597-6.917 14.425 0 1.543 1.173 3.953 2.965 3.953 1.187 0 2.57-.592 4.348-1.978 2.152-1.673 7.523-6.9 8.891-9.287l.196.196-6.322 11.856c-6.917 4.148-11.856 7.509-15.216 10.274-3.161 2.569-4.744 5.139-4.744 7.509 0 2.369 1.01 3.952 3.557 3.952 4.231 0 9.236-6.257 11.66-9.287 2.287-3.444 4.544-6.917 6.917-11.265 3.412-1.517 5.219-2.272 8.104-4.743 2.45-1.75 4.918-4.954 6.874-7.298l-.748-.214c-3.941 4.25-7.2 8.913-13.043 11.065l-.196-.196 12.843-20.748-4.543.396c-.987 1.778-2.766 4.148-5.139 7.312-2.37 2.965-4.743 5.535-7.313 7.905-2.57 2.569-4.543 3.756-5.93 3.756-.624 0-.987-.4-.987-.987 0-.792.791-2.174 2.37-4.94 1.622-2.78 4.544-5.93 4.544-9.287 0-2.09-1.046-4.148-3.36-4.148-5.724 0-12.434 13.022-19.96 18.182h.01Zm23.713 3.952c-3.161 2.174-6.126 3.952-8.3 5.731-2.838 2.126-6.794 4.826-8.696 8.104-.395.987-.79 2.173-.79 3.16 0 1.779.59 2.57 2.173 2.57 4.094 0 7.404-5.186 9.487-8.104 1.977-3.161 3.952-6.717 6.126-11.461Zm22.921-2.173-4.939.196c.591-.592 1.778-2.766 4.148-5.93 2.174-3.361 4.148-5.93 5.534-8.104 1.187-1.978 1.978-3.557 1.978-4.148 0-.592-.591-.987-1.187-.987-4.01 0-8.002 6.394-10.713 9.105l-.747-.214 2.569-3.161c1.916-2.109 6.006-6.718 9.091-6.718 1.978 0 2.965 1.383 2.965 3.757 0 1.977-1.582 5.138-4.743 9.09v.196c.591-.395 1.582-1.382 3.161-3.16 1.778-1.779 3.161-3.557 4.543-4.744 1.662-1.455 5.063-5.139 7.313-5.139 1.72 0 2.765 2.134 2.765 3.557 0 1.579-1.959 5.117-2.965 6.322-3.161 4.347-4.743 7.113-4.743 8.3 0 .395 0 .591.196.79.196.396.592.396.987.396 1.383 0 3.952-1.978 7.708-5.534 1.024-1.169 2.889-3.085 3.702-4.344l.134.954-1.662 1.808c-.987 1.186-2.174 2.37-2.569 2.965-3.557 3.556-5.93 4.939-7.313 4.939-1.187 0-1.978-.196-2.569-.987-.592-.791-.791-1.978-.791-3.557 0-1.578.395-3.16 1.582-4.743 1.056-1.85 6.322-7.879 6.322-9.09 0-.397-.592-.792-1.187-.792-.595 0-1.978.591-3.756 2.174-1.582 1.382-3.557 3.16-5.534 5.534a1726.191 1726.191 0 0 0-5.731 6.322c-1.778 2.174-2.965 3.952-3.556 4.94l.007.007Zm44.859-16.404c0 3.64-3.313 5.422-5.334 6.522-2.378 1.233-6.805 2.714-9.487 3.16-.196.987-.396 1.779-.396 2.37 0 2.414.625 3.756 3.161 3.756 4.076 0 7.251-2.99 10.078-5.534.988-.987 1.779-1.978 2.766-2.965l1.194-1.375.53.352-2.12 2.41c-1.546 1.857-5.886 6.053-7.904 6.916-3.121 1.173-7.059 1.844-9.486-.987-.792-1.582-1.187-3.36-1.187-5.534 0-.824.196-1.459.196-2.174h-.196l-.055-.983.646-.795c.839-1.02 1.056-1.249 1.583-1.779 2.174-2.173 4.148-3.756 6.322-4.939 2.173-1.186 4.347-1.978 6.322-1.978 2.133 0 3.36 1.503 3.36 3.557h.007Zm-3.36-2.57c-.987 0-1.978.396-3.161.988-2.762 2-4.798 3.778-6.522 6.717-.591 1.383-1.186 2.57-1.382 3.756 1.582-.196 3.556-.79 5.334-1.778 3.107-1.553 6.917-4.478 6.917-8.3 0-.987-.395-1.382-1.186-1.382Zm22.076 8.845c-.527.599-.632.874-1.721 2.025-.765.813-1.778 1.978-2.369 2.57-3.952 3.951-6.917 5.73-9.091 5.73-2.174 0-3.361-1.162-3.361-3.361 0-1.778.396-3.756 1.383-5.73.987-1.583 2.765-4.544 5.139-8.104-.592.591-1.118 1.009-1.902 1.862-1.423 1.694-2.794 3.375-4.279 5.019l-.53-.352c.628-.752 1.554-1.692 2.167-2.577 3.756-4.348 7.113-8.3 10.078-12.448h-2.569c-.396 0-.592-.196-.592-.591v-.396h3.361l4.347-7.113 4.544-.196-4.743 7.313h8.495v.987h-8.891c-.791.79-1.978 2.765-3.756 5.73-1.978 3.161-3.756 5.73-4.939 7.904-1.383 2.174-2.766 4.348-3.756 6.322-.987 1.778-1.583 3.161-1.583 4.148 0 .592.592.791 1.583.791 1.978 0 4.543-1.778 7.708-4.939 1.383-1.383 3.52-3.382 4.112-4.37l1.165-.224Zm11.718-16.353 4.348-7.113 4.543-.196-4.743 7.313h8.496c.196 0 .395 0 .395.395 0 .396-.196.592-.395.592h-8.891c-.592.79-1.978 2.765-3.757 5.73-1.977 3.161-3.556 5.73-4.939 7.904-1.383 2.174-2.569 4.348-3.756 6.322-.791 1.778-1.383 3.161-1.383 4.148 0 .592.592.791 1.383.791 1.978 0 4.544-1.778 7.904-4.939 1.455-1.59 3.02-3.212 4.544-4.743.196 0 .395 0 .395.395-.852 1.282-2.812 3.056-3.952 4.348-3.756 3.952-6.917 5.73-9.091 5.73-2.173 0-3.161-1.168-3.161-3.36 0-1.778.396-3.756 1.187-5.73.301-.94 2.965-4.544 5.335-8.104-1.782 1.335-3.088 3.24-4.544 4.939-.395.396-.918 1.056-1.64 1.927l-1.176.24 2.813-3.154c3.556-4.348 7.113-8.3 9.882-12.448h-3.161v-.987h3.364Z"/><path d="M122.842 17.572c.355 0 .704.026 1.045.07a8.278 8.278 0 0 1 2.482-.375v-.003c1.938.003 3.702.657 4.99 1.713 1.336 1.096 2.167 2.623 2.167 4.322 0 1.698-.831 3.226-2.167 4.322-1.285 1.056-3.052 1.71-4.99 1.71v.003a8.517 8.517 0 0 1-2.482-.377 8.96 8.96 0 0 1-1.045.069c-1.862 0-3.561-.632-4.794-1.644-1.267-1.038-2.055-2.483-2.055-4.083 0-1.604.788-3.049 2.055-4.087.01-.01.025-.018.036-.029 1.23-.994 2.91-1.607 4.754-1.607l.004-.004Zm4.83 1.67c1.248 1.037 2.021 2.47 2.021 4.057 0 1.586-.773 3.02-2.021 4.057.973-.196 1.84-.602 2.519-1.161.921-.755 1.491-1.782 1.491-2.896 0-1.114-.57-2.141-1.491-2.896-.679-.559-1.546-.97-2.519-1.162Zm3.371-19.13c4.798.574 4.544 3.39 4.217 7.066-.083.948-.174 1.967-.156 3.009.385-.163.762-.323 1.133-.483 3.121-1.332 5.821-2.486 8.88-2.279 3.807-.896 7.701-.272 13.399 4.464 1.502 1.252 1.128 2.787-.236 4.424-1.455 1.745-4.137 3.64-6.536 5.338-1.448 1.024-2.791 1.97-3.611 2.7.649.352 1.383.686 2.134 1.035 3.433 1.575 7.276 3.338 7.49 7.933v.029c.138 3.284-.831 5.603-2.682 7.2-1.796 1.55-4.398 2.355-7.603 2.664h-.018v.003c-.893.077-1.8.018-2.704-.156a10.943 10.943 0 0 1-.74-.167l-.098.011h-.014a9.543 9.543 0 0 1-2.621-.148 13.092 13.092 0 0 1-2.569-.788c-2.783-1.161-5.396-3.223-7.298-5.248-.225.225-.465.454-.711.69-4.13 3.901-11.505 9.24-17.718 7.468-1.705.15-3.382-.09-4.946-.885-6.899-3.473-6.028-8.024-4.228-11.599.207-.41.425-.802.642-1.175-1.121.014-2.239-.044-3.277-.204a10.322 10.322 0 0 1-.599-.105c-.99 0-1.97-.062-2.885-.2-1.255-.192-2.399-.53-3.288-1.067-.958-.576-1.626-1.378-1.843-2.456a4.08 4.08 0 0 1-.022-1.445v-.014a8.858 8.858 0 0 1 .856-2.617c.414-.827.951-1.615 1.568-2.355 2.914-3.495 7.77-6.043 10.721-7.022a2.987 2.987 0 0 1-.011-.81c.17-1.451 1.335-3.317 3.161-5.153 1.774-1.782 4.198-3.575 6.957-4.954 3.048-1.524 6.503-2.544 9.954-2.511 1.746-.316 3.524-.407 5.288-.2l.014.008Zm8.761 40.959c-2.813-1.692-5.266-4.098-6.736-6.115-.079.094-.163.188-.25.286-.167.189-.348.389-.548.599 1.789 1.916 4.268 3.883 6.913 4.986.207.087.414.167.621.24v.004Zm-29.915 2.33c-5.443-3.46-4.54-7.727-2.823-11.142.225-.443.461-.867.693-1.27-.592.072-1.208.134-1.836.174a26.96 26.96 0 0 0-1.013 1.79c-1.539 3.051-2.272 6.942 3.684 9.94.421.213.853.38 1.292.504l.003.004ZM96.977 29.319a3.749 3.749 0 0 1-1.187-2.068 4.436 4.436 0 0 1-.025-1.553v-.026a9.323 9.323 0 0 1 .885-2.7c.425-.849.973-1.655 1.608-2.413 1.775-2.127 4.253-3.905 6.601-5.204-2.783 1.136-6.557 3.328-8.949 6.191a11.025 11.025 0 0 0-1.412 2.116 7.633 7.633 0 0 0-.733 2.243v.021a2.9 2.9 0 0 0 .004 1.02c.141.7.602 1.238 1.274 1.64.533.32 1.194.56 1.934.73v.004Zm10.085-15.071c.65-.29 1.267-.537 1.822-.73a3.454 3.454 0 0 1 .018-.631c.178-1.52 1.376-3.451 3.248-5.335 1.55-1.557 3.589-3.117 5.908-4.413-.58.24-1.154.501-1.709.777-2.631 1.314-4.943 3.023-6.634 4.721-1.637 1.644-2.671 3.248-2.809 4.424-.036.301-.007.563.087.77.026.043.044.09.058.137a.664.664 0 0 1 .015.28h-.004Zm26.362-7.233c.236-2.653.417-4.689-2.562-5.063.918 1.227.755 3.06.566 5.194-.123 1.382-.258 2.907-.054 4.453a40.18 40.18 0 0 0 1.912-.683c-.087-1.371.033-2.692.138-3.905v.004Zm-5.026-5.15c-2.904.127-5.796 1.038-8.383 2.33-2.599 1.3-4.882 2.987-6.551 4.664-1.59 1.597-2.591 3.132-2.722 4.238-.029.24-.011.44.055.592a.923.923 0 0 1-.559 1.34c-2.664.754-7.654 3.229-10.557 6.71a10.856 10.856 0 0 0-1.376 2.06 7.182 7.182 0 0 0-.7 2.146v.032a2.487 2.487 0 0 0 0 .915c.123.606.533 1.078 1.132 1.437.704.424 1.651.697 2.722.86 1.031.156 2.159.207 3.281.181.41-.061.802-.13 1.172-.203a.62.62 0 0 1 .49.07c.022.01.04.025.058.039a26.866 26.866 0 0 0 2.965-.421.922.922 0 0 1 .969 1.39l-.265.428c-.45.722-.966 1.55-1.401 2.42-1.47 2.922-2.17 6.65 3.546 9.527.787.4 1.615.632 2.471.722 4.264-1.077 8.597-4.423 11.381-7.055.824-.78 1.51-1.491 2.018-2.065.49-.551.805-.958.911-1.157a.616.616 0 0 1 1.077-.018c.251.428.567.892.94 1.379.131-.142.258-.28.371-.407.471-.533.773-.918.871-1.1a.922.922 0 0 1 1.615-.025c1.404 2.417 4.968 6.006 8.913 7.65.751.313 1.509.552 2.261.697.293.055.587.098.878.123 1.891-.377 3.44-1.008 4.565-1.98 1.495-1.29 2.268-3.22 2.149-6-.171-3.654-3.561-5.211-6.591-6.601-1.197-.548-2.341-1.074-3.259-1.699l-.022-.014-.01-.007a.618.618 0 0 1-.164-.857c.668-.976 2.566-2.319 4.685-3.814 2.327-1.644 4.929-3.48 6.242-5.059.773-.93 1.064-1.735.436-2.257-2.704-2.247-4.965-3.477-7.001-4.029-2.21.19-4.289 1.078-6.63 2.076-1.717.733-3.564 1.524-5.669 2.163a.922.922 0 0 1-1.204-.7 13.889 13.889 0 0 1-.073-.4c-.748.284-1.528.552-2.348.803a.617.617 0 0 1-.806-.465c-.384-1.934-.217-3.807-.069-5.484.222-2.485.396-4.463-1.803-5.175h-.011Zm-8.529 40.646c3.637-1.393 7.179-4.191 9.57-6.449.272-.257.527-.504.766-.743-.232-.298-.45-.589-.642-.868-.145.178-.312.374-.501.588a34.546 34.546 0 0 1-2.098 2.148c-1.847 1.746-4.347 3.782-7.095 5.328v-.004Zm30.971-1.796c1.216-.37 2.236-.882 3.03-1.568 1.419-1.223 2.156-3.07 2.044-5.745v-.007c-.164-3.466-3.463-4.98-6.413-6.333l-.283-.13c2.446 1.335 4.551 3.128 4.703 6.398.138 3.197-.791 5.443-2.573 6.982a7.703 7.703 0 0 1-.508.403Zm-3.778-14.847a12.338 12.338 0 0 1-.853-.519l-.032-.021-.011-.008-.004-.003a.926.926 0 0 1-.243-1.285c.697-1.023 2.62-2.38 4.761-3.894 2.312-1.633 4.896-3.459 6.184-5.005.657-.787.93-1.444.476-1.825-2.25-1.87-4.188-3.023-5.945-3.658 1.064.653 2.189 1.47 3.397 2.475 1.328 1.107.969 2.493-.276 3.992-1.426 1.713-4.093 3.596-6.478 5.28-1.647 1.165-3.157 2.232-3.952 3.016.744.436 1.619.835 2.526 1.252l.447.207.003-.004Zm-25.65 1.775-.026-.022c-1.335-1.096-2.166-2.624-2.166-4.322 0-1.699.831-3.226 2.166-4.322l.026-.022a6.044 6.044 0 0 0-2.541 1.18l-.036.032c-.991.813-1.604 1.92-1.604 3.132 0 1.212.613 2.319 1.604 3.132.7.573 1.586.998 2.58 1.208l-.003.004Zm3.781-8.423c-1.02.185-1.927.606-2.634 1.183-.922.755-1.492 1.782-1.492 2.896 0 1.114.57 2.137 1.492 2.892.707.58 1.614.998 2.634 1.183a5.874 5.874 0 0 0 1.67-.947c.99-.813 1.604-1.92 1.604-3.132 0-1.212-.614-2.322-1.604-3.132a5.824 5.824 0 0 0-1.67-.947v.004ZM56.004 75.387c-1.306 1.256-2.359 2.218-3.386 3.158-.827.755-1.64 1.499-2.547 2.359-5.226 4.957-9.621 6.971-12.992 6.971-1.793 0-3.3-.57-4.482-1.571-1.19-1.002-2.058-2.439-2.58-4.166-.378-1.253-.57-2.653-.57-4.156 0-.344.014-.69.043-1.03.004-.058.011-.113.015-.167.025-.25.054-.498.09-.744-.054 0-.105-.008-.156-.011a28.712 28.712 0 0 1-3.545-.425 21.697 21.697 0 0 1-3.223-.849c-5.175-1.826-8.608-5.629-8.605-12.063 0-.051.026-.095.055-.095h.043c.03 0 .055.044.055.095v.025a11.29 11.29 0 0 0 .508 2.954c.287.897.69 1.71 1.197 2.44 2.61 3.766 7.937 5.36 14.292 5.428 2.972-8.862 14.117-17.314 23.894-21.357 3.582-1.48 6.982-2.37 9.733-2.468 2.758-.102 4.867.595 5.85 2.286.4.69.617 1.54.617 2.566v.229c-.043 1.459-.475 2.91-1.237 4.333-.755 1.408-1.833 2.79-3.168 4.115-6.79 6.74-20.269 12.085-31.773 12.79-.051.206-.098.413-.145.62a16.57 16.57 0 0 0-.363 4.17c.032.776.13 1.455.29 2.036.33 1.216.922 2.028 1.713 2.5.798.476 1.796.61 2.94.465 3.193-.414 7.475-3.023 11.46-6.431 2.105-1.8 4.286-3.756 6.438-5.68 1.02-.914 2.036-1.821 3.052-2.725.204-.229.585-.058.897.294.12.134.228.294.316.468.09.178.156.374.184.57.048.308.008.624-.17.9 0 0-.004.007-.007.007-3.452 4.794-6.576 9.657-9.472 14.172-4.37 6.8-8.224 12.807-11.925 16.581-8.841 9.015-20.382 11.116-28.667 8.536-2.892-.9-5.385-2.37-7.233-4.319-1.854-1.956-3.059-4.391-3.36-7.211-.24-2.239.094-4.714 1.121-7.378.018-.043.051-.054.076-.025l.026.029c.025.025.033.083.018.127-.682 2.272-.853 4.373-.606 6.275.37 2.83 1.67 5.229 3.615 7.109 1.952 1.887 4.554 3.244 7.519 3.985 7.483 1.869 17.25-.214 24.66-7.712 4.681-4.74 9.443-12.23 14.98-20.937 1.452-2.282 2.959-4.652 4.526-7.069l-.01-.004Zm14.049-20.736c.094-11.468-28.554 1.292-35.232 18.835 10.412-.407 35.228-8.804 35.232-18.835Z"/></g><defs><clipPath id="clip0_470_2207"><path fill="#fff" d="M0 0h200v122.417H0z"/></clipPath></defs></svg>