<svg width="40" height="43" fill="none" xmlns="http://www.w3.org/2000/svg"><g clip-path="url('#clip0_468_616')" fill="#23423A"><path d="M37.536.457H2.464A2.46 2.46 0 0 0 0 2.921v.556a1.96 1.96 0 0 0 1.96 1.96h36.08A1.96 1.96 0 0 0 40 3.477v-.556C40 1.563 38.9.457 37.536.457ZM4.26 29.882h14.865v4.752a3.922 3.922 0 0 0-3.043 3.822 3.925 3.925 0 0 0 3.92 3.92 3.929 3.929 0 0 0 3.922-3.92 3.933 3.933 0 0 0-3.043-3.822v-4.752h14.864V7.187H4.26v22.695ZM17.282 15.93a.859.859 0 0 1 .62-.263c.234 0 .456.094.62.258l4.331 4.348 5.466-5.373h-1.89a.587.587 0 0 1-.586-.585v-.585c0-.322.264-.585.586-.585h4.126c.485 0 .877.392.877.878v3.733a.587.587 0 0 1-.585.586h-.585a.587.587 0 0 1-.585-.586V16.03l-6.215 6.104a.876.876 0 0 1-1.235-.006l-4.32-4.337-7.104 7.21a.583.583 0 0 1-.825.006l-.415-.41a.583.583 0 0 1-.006-.825l7.725-7.841Z"/></g><defs><clipPath id="clip0_468_616"><path fill="#fff" transform="translate(0 .457)" d="M0 0h40v41.919H0z"/></clipPath></defs></svg>