<svg width="38" height="41" fill="none" xmlns="http://www.w3.org/2000/svg"><g clip-path="url('#clip0_468_597')" fill="#23423A"><path d="M.943 16.553v21.6a2.266 2.266 0 0 0 2.264 2.264h31.58a2.266 2.266 0 0 0 2.264-2.264V16.251H.943v.302Zm14.193 7.835 4.056-2.805c.29-.2.66-.22.974-.056a.947.947 0 0 1 .503.836v11.621a.942.942 0 1 1-1.886 0v-9.822l-2.578 1.78a.947.947 0 0 1-1.314-.24.947.947 0 0 1 .239-1.314h.006ZM37.057 6.567a2.266 2.266 0 0 0-2.264-2.264h-2.911V1.675c0-.692-.566-1.258-1.258-1.258-.692 0-1.258.566-1.258 1.258v2.628h-9.105V1.675c0-.692-.566-1.258-1.258-1.258-.692 0-1.258.566-1.258 1.258v2.628H8.64V1.675C8.64.983 8.074.417 7.382.417c-.691 0-1.257.566-1.257 1.258v2.628H3.207A2.266 2.266 0 0 0 .943 6.567v7.791h36.114V6.567Z"/></g><defs><clipPath id="clip0_468_597"><path fill="#fff" transform="translate(.943 .417)" d="M0 0h36.114v40H0z"/></clipPath></defs></svg>