<svg width="50" height="33" fill="none" xmlns="http://www.w3.org/2000/svg"><g clip-path="url('#clip0_468_547')" fill="#23423A"><path d="m34.829 17.307-8.48-8.485-.768.694a24.574 24.574 0 0 1-5.792 3.874c-.631.3-1.3.45-1.993.45a4.59 4.59 0 0 1-3.93-2.194c-.738-1.2-.6-2.755.337-3.874l3.136-3.743h-7.241L8.091 17.826 21.45 31.241a3.501 3.501 0 0 0 2.5 1.038c.943 0 1.761-.344 2.417-.956l-4.855-4.855a.943.943 0 0 1 0-1.325.932.932 0 0 1 1.325 0l4.943 4.936h.006c.8.756 2.074.738 2.85-.037l.899-.906c.037-.032.037-.1 0-.138l-6.274-6.28a.932.932 0 0 1 0-1.324.943.943 0 0 1 1.325 0l6.274 6.28.23.23c.444.45 1.17.45 1.613 0l1.543-1.536s.031-.044.031-.07a.104.104 0 0 0-.03-.074l-.407-.406-6.842-6.842a.895.895 0 0 1-.2-.306v-.013a.879.879 0 0 1 0-.681v-.019a.957.957 0 0 1 .512-.512.945.945 0 0 1 .35-.069c.125 0 .238.025.344.069a.898.898 0 0 1 .306.2c.006 0 .013.006.013.006l.037.038 6.805 6.804c1.45 1.444 1.874 1.025 2.899 0l.581-.575a.536.536 0 0 0 0-.762l-5.823-5.842.006-.007Z"/><path d="M28.724 1.199A6.74 6.74 0 0 0 20.64 3.01l-.556.675-4.443 5.292c-.413.494-.488 1.187-.175 1.687.5.813 1.375 1.3 2.33 1.3.413 0 .807-.088 1.181-.269a22.537 22.537 0 0 0 5.35-3.574l1.43-1.287s.012-.006.019-.013a1.12 1.12 0 0 1 .262-.156c.007-.006.019-.006.032-.012a.991.991 0 0 1 .312-.056c.25 0 .487.1.668.274L38.879 18.72l3.349-3.012-1.7-11.691a29.678 29.678 0 0 1-11.803-2.818ZM0 1.305v17.977h5.992c0-.044 0-.088.013-.131L8.598 1.305H0ZM42.027 1.305l2.593 17.846a.924.924 0 0 1 .013.13H50V1.306h-7.973Z"/></g><defs><clipPath id="clip0_468_547"><path fill="#fff" transform="translate(0 .555)" d="M0 0h50v31.723H0z"/></clipPath></defs></svg>