<svg width="54" height="41" fill="none" xmlns="http://www.w3.org/2000/svg"><g clip-path="url('#clip0_468_607')"><path d="M52.748 23.834c-.617-1.087-1.616-1.871-2.777-2.187l-2.864-.885c.013-.302.02-.604.02-.906C47.127 9.144 38.098.423 27.003.423c-11.095 0-20.13 8.714-20.13 19.427 0 .355.013.73.033 1.113l-2.838.664A4.666 4.666 0 0 0 .822 27.37l2.126 7.674a4.603 4.603 0 0 0 2.187 2.81 4.668 4.668 0 0 0 3.555.444l3.998-1.107a1.36 1.36 0 0 0 .859-.725 1.325 1.325 0 0 0 0-1.127c-2.066-4.527-3.475-9.438-3.87-13.463a.097.097 0 0 0-.014-.047v-.107a20.668 20.668 0 0 1-.094-1.871c0-9.237 7.821-16.75 17.44-16.75 9.62 0 17.442 7.513 17.442 16.75 0 .57-.027 1.153-.08 1.737v.04c0 .034-.008.06-.014.094-.362 3.938-1.785 8.928-3.797 13.41a8.71 8.71 0 0 1-6.192 2.596c-.375 0-.75-.034-1.12-.081a4.35 4.35 0 0 0 .363-1.75 4.446 4.446 0 0 0-4.441-4.442h-4.307a4.446 4.446 0 0 0-4.44 4.441 4.446 4.446 0 0 0 4.44 4.44h4.307c.677 0 1.314-.153 1.891-.428a11.24 11.24 0 0 0 3.314.503 11.41 11.41 0 0 0 7.701-3.012l3.26.899c.41.114.825.167 1.234.167 2.04 0 3.931-1.355 4.508-3.428l2.12-7.673a4.633 4.633 0 0 0-.43-3.542l-.02.013Z" fill="#23423A"/></g><defs><clipPath id="clip0_468_607"><path fill="#fff" transform="translate(.647 .417)" d="M0 0h52.705v40H0z"/></clipPath></defs></svg>