<svg width="40" height="40" fill="none" xmlns="http://www.w3.org/2000/svg"><g clip-path="url('#clip0_468_572')" fill="#23423A"><path d="M19.096 14.275c.176 0 .353.006.524.017l.294.024a1.175 1.175 0 0 0 1.267-1.078l.047-.59a1.172 1.172 0 0 0-1.078-1.266l-.294-.024c-.248-.017-.501-.03-.76-.03-5.392 0-9.752 4.514-9.498 9.964.23 4.837 4.207 8.814 9.044 9.044 5.45.253 9.963-4.107 9.963-9.498v-.395c0-.648-.53-1.178-1.178-1.178h-.59c-.648 0-1.178.53-1.178 1.178v.2c0 3.418-2.527 6.405-5.927 6.73a6.57 6.57 0 0 1-7.194-6.535 6.573 6.573 0 0 1 6.564-6.563h-.006Z"/><path d="M17.729 39.88c11.141.779 20.456-8.065 20.456-19.042 0-.978-.065-1.88-.206-2.745v-.183a1.18 1.18 0 0 0-1.184-1.178h-.59c-.648 0-1.172.53-1.172 1.178v.3c.006.083.012.165.024.248.123.742.182 1.52.182 2.38 0 9.51-8.266 17.128-17.993 16.044-7.407-.825-13.37-6.793-14.2-14.2C1.962 12.955 9.58 4.69 19.096 4.69c1.19 0 2.356.13 3.476.383l.288.064a1.176 1.176 0 0 0 1.409-.89l.13-.577a1.176 1.176 0 0 0-.89-1.408l-.29-.065a18.799 18.799 0 0 0-4.13-.453C8.114 1.743-.73 11.058.048 22.199.701 31.603 8.32 39.221 17.73 39.881Z"/><path d="M17.87 19.96c-.477.442-.5 1.19-.059 1.668l.4.43c.443.477 1.191.5 1.668.059l7.866-7.353 3.612.33h.053a.593.593 0 0 0 .4-.16l7.996-7.476c.17-.16.23-.4.153-.625a.586.586 0 0 0-.507-.395l-4.537-.412-.112-4.554a.584.584 0 0 0-.36-.53.592.592 0 0 0-.63.111L25.818 8.53a.597.597 0 0 0-.188.442l.088 3.635-7.866 7.348.018.005Z"/></g><defs><clipPath id="clip0_468_572"><path fill="#fff" transform="translate(0 .9)" d="M0 0h40v39.034H0z"/></clipPath></defs></svg>