<svg width="40" height="40" fill="none" xmlns="http://www.w3.org/2000/svg"><g clip-path="url('#clip0_468_611')"><path d="M38.388 17.39H37.19c0-5.168-2.848-9.977-7.617-12.858-.219-.13-.46-.191-.696-.197C28.586 2.397 26.912.903 24.9.903h-9.499c-1.96 0-3.6 1.421-3.954 3.28-.248 0-.495.05-.72.186-4.948 2.859-7.897 7.729-7.897 13.026H1.629c-1.006 0-1.77.916-1.59 1.904l3.466 19.306a1.62 1.62 0 0 0 1.59 1.332h29.838c.78 0 1.45-.562 1.59-1.331l3.466-19.307a1.618 1.618 0 0 0-1.59-1.904l-.011-.006ZM11.903 6.93a4.033 4.033 0 0 0 3.488 2.028h9.499c1.438 0 2.696-.764 3.415-1.904 3.803 2.381 6.072 6.224 6.072 10.33H5.623c0-4.202 2.342-8.089 6.28-10.46v.006Zm1.91 25.716a1.405 1.405 0 0 1-2.81 0V24.04c0-.775.624-1.404 1.405-1.404.78 0 1.405.629 1.405 1.404v8.606Zm7.734 0a1.405 1.405 0 0 1-2.808 0V24.04a1.405 1.405 0 0 1 2.808 0v8.606Zm7.735 0c0 .775-.623 1.404-1.404 1.404-.78 0-1.404-.63-1.404-1.404V24.04a1.405 1.405 0 0 1 2.808 0v8.606Z" fill="#23423A"/></g><defs><clipPath id="clip0_468_611"><path fill="#fff" transform="translate(0 .903)" d="M0 0h40v39.028H0z"/></clipPath></defs></svg>