<svg width="40" height="41" fill="none" xmlns="http://www.w3.org/2000/svg"><g clip-path="url('#clip0_468_560')" fill="#23423A"><path d="M18.034 40.417c9.398 0 17.297-7.333 17.98-16.699a.668.668 0 0 0-.17-.493.662.662 0 0 0-.48-.21H17.408V5.06a.662.662 0 0 0-.704-.657C7.333 5.087 0 12.985 0 22.383c0 9.945 8.09 18.034 18.034 18.034Z"/><path d="M21.966.417a.66.66 0 0 0-.657.658V18.45a.66.66 0 0 0 .657.657h17.376a.66.66 0 0 0 .658-.657C40 8.506 31.91.417 21.966.417Z"/></g><defs><clipPath id="clip0_468_560"><path fill="#fff" transform="translate(0 .417)" d="M0 0h40v40H0z"/></clipPath></defs></svg>