<svg width="40" height="48" fill="none" xmlns="http://www.w3.org/2000/svg"><path d="M35.295 24.688c-2.898-3.869-6.964-6.628-11.67-7.593l.108-3.833c2.754-1.044 4.712-3.313 5.164-6 .05-.281.08-.577.094-.915a.719.719 0 0 0-.682-.742c-.56-.03-1.147.05-1.757.136-1.743.238-3.385.469-4.755-1.873-1.987-3.4-5.128-3.27-6.513-2.73a.827.827 0 0 0-.23.144c-1.255 1.182-2.058 2.644-2.33 4.236-.445 2.615.681 5.237 2.919 6.837l.122.086c.079.058.157.115.244.166l-.087 4.582C6.67 19.343 0 28.52 0 39.225c0 2.868.473 5.656 1.399 8.285.107.296.358.497.702.476a528.92 528.92 0 0 1 17.895-.296c6.161 0 12.179.101 17.895.296h.029a.712.712 0 0 0 .674-.476A24.721 24.721 0 0 0 40 39.225c0-5.51-1.75-10.597-4.705-14.537ZM16.697 40.227a1.077 1.077 0 0 1-1.076-1.08c0-.599.48-1.081 1.076-1.081h4.045a2.11 2.11 0 0 0 0-4.222H19.25c-2.345 0-4.253-1.916-4.253-4.272a4.277 4.277 0 0 1 3.802-4.25v-1.65c0-.598.487-1.08 1.076-1.08.588 0 1.075.482 1.075 1.08V25.3h1.478c.595 0 1.076.483 1.076 1.08 0 .599-.48 1.081-1.076 1.081H19.25a2.104 2.104 0 0 0-2.101 2.111c0 1.167.94 2.111 2.101 2.111h1.492a4.269 4.269 0 0 1 4.26 4.272c0 2.356-1.792 4.157-4.052 4.265v1.83a1.077 1.077 0 1 1-2.151 0v-1.823h-2.102Z" fill="#23423A"/></svg>